<svg width="718" height="694" viewBox="0 0 718 694" fill="none" xmlns="http://www.w3.org/2000/svg">
<path d="M297.046 188.5C316.646 157.3 367.213 141 395.046 133L395.546 67L396.046 1H416.546V191C427.746 193.8 452.879 226.5 464.046 242.5V273.5C465.546 274.5 470.146 278.4 476.546 286C482.946 293.6 479.879 300.5 477.546 303C467.546 314.167 448.246 337.1 451.046 339.5C453.846 341.9 455.879 348.5 456.546 351.5V392C459.746 391.6 473.213 395.167 479.546 397C478.879 397.167 477.146 397.5 475.546 397.5C473.546 397.5 453.546 400.5 455.546 400.5C457.146 400.5 463.546 403.5 466.546 405L451.046 406C450.879 412 450.046 428.1 448.046 444.5C446.046 460.9 439.546 491.667 436.546 505L438.546 504C452.213 496.333 489.046 482.2 527.046 487C565.046 491.8 586.879 523 593.046 538C595.046 541.5 598.546 552.5 598.546 563.5V691.5H586.046L581.046 590C581.046 561 563.713 537.333 553.046 528C542.379 517.667 514.046 499.1 486.046 507.5C458.046 515.9 440.046 529.667 434.546 535.5C432.879 536.667 429.846 539.6 431.046 542C432.546 545 431.546 544.5 438.046 549C443.246 552.6 450.546 553.833 453.546 554L456.046 555L457.046 557.5L456.046 559L453.546 559.5C446.546 557.5 444.046 557 440.046 559.5C437.546 568.5 443.546 584.5 444.046 587.5C444.385 589.534 442.056 603.446 438.546 593.5C435.546 585 428.046 567.333 423.546 559.5H418.546V643.5L394.046 649.5V546.528C393.894 546.428 393.271 545.938 391.546 544.5C388.546 542 385.546 535.5 382.046 525C378.546 514.5 376.546 489 376.046 479.5C375.646 471.9 376.213 460.667 376.546 456C378.379 435 381.346 392.5 378.546 390.5C375.746 388.5 374.046 390 373.546 391C373.713 395.167 373.946 403.8 373.546 405C373.046 406.5 372.046 406 367.046 407.5C362.046 409 356.546 406 355.546 406H348.546C346.879 405.5 343.546 404.8 343.546 406C343.546 407.2 340.879 407.833 339.546 408C338.546 408 336.646 407.9 337.046 407.5C337.546 407 333.546 401 333.046 399L332.046 395C332.446 393 329.879 390.833 328.546 390C326.713 389.833 322.846 389.9 322.046 391.5C321.246 393.1 323.046 398.5 324.046 401C318.046 397.5 305.246 389.4 302.046 385C298.846 380.6 297.046 369.833 296.546 365V340C297.546 330.5 300.046 310.5 302.046 306.5C304.046 302.5 311.546 297.833 315.046 296C315.879 295.667 317.946 295.1 319.546 295.5C321.546 296 323.546 296 330.046 296C336.546 296 336.046 295 340.546 292.5C344.146 290.5 348.379 282.333 350.046 278.5C350.446 280.9 348.879 288.5 348.046 292C348.046 292.333 349.046 292.4 353.046 290C357.046 287.6 359.713 279.667 360.546 276C360.879 276.667 361.546 278.2 361.546 279C361.546 280 362.546 284 360.546 291C358.546 298 355.546 297 353.546 299C351.946 300.6 352.879 302.333 353.546 303L355.046 304C356.379 304.5 359.146 306 359.546 308C359.946 310 362.713 312.833 364.046 314C368.546 315.5 368.546 316 370.546 314C373.154 311.392 376.713 299.333 378.046 293.5C378.713 288 379.146 275.6 375.546 270C371.046 263 370.546 262.5 369.046 260C367.846 258 365.213 256.167 364.046 255.5C362.046 255.5 362.546 255.5 359.546 256C353.546 259.2 344.046 261.667 340.046 262.5C333.046 262.667 318.446 263 316.046 263C313.646 263 312.713 263.667 312.546 264L311.546 266C313.046 266.5 262.256 325.986 246.046 338C245.646 339.2 245.879 340.5 246.046 341C246.046 343 249.879 346.167 250.046 346C272.046 358.4 283.546 374 286.546 380.5C297.746 392.9 308.879 419 313.046 430.5L321.046 438.5L343.546 439L374.046 472L372.546 474.5L353.046 459.5H349.046C348.713 465.167 348.546 476.8 350.546 478C352.546 479.2 362.713 489.833 367.546 495C367.879 495.5 368.646 497.3 369.046 500.5C369.446 503.7 362.213 514.167 358.546 519C357.346 519.8 348.713 519 344.546 518.5C340.146 517.3 339.046 516.667 339.046 516.5C337.846 514.9 337.213 513.833 337.046 513.5C335.846 503.9 334.213 497.167 333.546 495C332.746 491.4 327.879 487.167 325.546 485.5C322.346 483.1 316.879 477.5 314.546 475C312.946 473.4 307.546 466.333 305.046 463C300.646 456.6 273.546 427 260.546 413L210.546 369.5C212.046 371 208.446 367.5 204.046 363.5C199.646 359.5 196.546 355.833 195.546 354.5C192.746 349.3 194.379 340.333 195.546 336.5C195.546 336.5 209.713 308.5 216.546 296.5C234.146 265.7 239.213 260.333 239.546 261.5C252.63 244.678 255.848 240.916 255.765 241.335L269.546 219C277.546 205.8 294.213 190.333 297.046 188.5Z" fill="#ff038f"/>
<path d="M419.546 188.5V126L446.546 118.5L473.546 111C493.046 108.5 508.046 109 515.046 107L535.546 96.5L627.546 95L647.546 71.5L657.546 70.5L691.046 57.5L692.046 60.5L662.046 76.5V80C666.046 80.1667 674.346 80.4 675.546 80C676.746 79.6 687.046 73.5 692.046 70.5H700.046C715.246 84.1 717.379 89.8333 716.546 91C713.879 94.6667 707.746 102.3 704.546 103.5C700.546 105 703.046 104.5 698.546 104.5C696.879 101.833 692.146 96.5 686.546 96.5C680.946 96.5 675.879 100.167 674.046 102C666.713 102.833 651.946 104.7 651.546 105.5C651.146 106.3 584.379 130.833 551.046 143C542.046 143.167 522.846 144.4 518.046 148C513.246 151.6 508.379 154.5 506.546 155.5C500.546 155.5 488.046 155.7 486.046 156.5C484.046 157.3 482.546 158.5 482.046 159C448.046 182.6 426.213 188.5 419.546 188.5Z" fill="#ff038f"/>
<path d="M418.546 679L393.546 686V693H418.546V679Z" fill="#ff038f"/>
<path d="M396.046 1H416.546V191C427.746 193.8 452.879 226.5 464.046 242.5V273.5C465.546 274.5 470.146 278.4 476.546 286C482.946 293.6 479.879 300.5 477.546 303C467.546 314.167 448.246 337.1 451.046 339.5C453.846 341.9 455.879 348.5 456.546 351.5V392C459.746 391.6 473.213 395.167 479.546 397C478.879 397.167 477.146 397.5 475.546 397.5C473.546 397.5 453.546 400.5 455.546 400.5C457.146 400.5 463.546 403.5 466.546 405L451.046 406C450.879 412 450.046 428.1 448.046 444.5C446.046 460.9 439.546 491.667 436.546 505L438.546 504C452.213 496.333 489.046 482.2 527.046 487C565.046 491.8 586.879 523 593.046 538C595.046 541.5 598.546 552.5 598.546 563.5V691.5H586.046L581.046 590C581.046 561 563.713 537.333 553.046 528C542.379 517.667 514.046 499.1 486.046 507.5C458.046 515.9 440.046 529.667 434.546 535.5C432.879 536.667 429.846 539.6 431.046 542C432.546 545 431.546 544.5 438.046 549C443.246 552.6 450.546 553.833 453.546 554L456.046 555L457.046 557.5L456.046 559L453.546 559.5C446.546 557.5 444.046 557 440.046 559.5C437.546 568.5 443.546 584.5 444.046 587.5C444.385 589.534 442.056 603.446 438.546 593.5C435.546 585 428.046 567.333 423.546 559.5H418.546V643.5L394.046 649.5V546.5C394.213 546.667 393.946 546.5 391.546 544.5C388.546 542 385.546 535.5 382.046 525C378.546 514.5 376.546 489 376.046 479.5C375.646 471.9 376.213 460.667 376.546 456C378.379 435 381.346 392.5 378.546 390.5C375.746 388.5 374.046 390 373.546 391C373.713 395.167 373.946 403.8 373.546 405C373.046 406.5 372.046 406 367.046 407.5C362.046 409 356.546 406 355.546 406C354.746 406 350.546 406 348.546 406C346.879 405.5 343.546 404.8 343.546 406C343.546 407.2 340.879 407.833 339.546 408C338.546 408 336.646 407.9 337.046 407.5C337.546 407 333.546 401 333.046 399C332.646 397.4 332.213 395.667 332.046 395C332.446 393 329.879 390.833 328.546 390C326.713 389.833 322.846 389.9 322.046 391.5C321.246 393.1 323.046 398.5 324.046 401C318.046 397.5 305.246 389.4 302.046 385C298.846 380.6 297.046 369.833 296.546 365V340C297.546 330.5 300.046 310.5 302.046 306.5C304.046 302.5 311.546 297.833 315.046 296C315.879 295.667 317.946 295.1 319.546 295.5C321.546 296 323.546 296 330.046 296C336.546 296 336.046 295 340.546 292.5C344.146 290.5 348.379 282.333 350.046 278.5C350.446 280.9 348.879 288.5 348.046 292C348.046 292.333 349.046 292.4 353.046 290C357.046 287.6 359.713 279.667 360.546 276C360.879 276.667 361.546 278.2 361.546 279C361.546 280 362.546 284 360.546 291C358.546 298 355.546 297 353.546 299C351.946 300.6 352.879 302.333 353.546 303L355.046 304C356.379 304.5 359.146 306 359.546 308C359.946 310 362.713 312.833 364.046 314C368.546 315.5 368.546 316 370.546 314C373.154 311.392 376.713 299.333 378.046 293.5C378.713 288 379.146 275.6 375.546 270C371.046 263 370.546 262.5 369.046 260C367.846 258 365.213 256.167 364.046 255.5C362.046 255.5 362.546 255.5 359.546 256C353.546 259.2 344.046 261.667 340.046 262.5C333.046 262.667 318.446 263 316.046 263C313.646 263 312.713 263.667 312.546 264L311.546 266C313.046 266.5 262.256 325.986 246.046 338C245.646 339.2 245.879 340.5 246.046 341C246.046 343 249.879 346.167 250.046 346C272.046 358.4 283.546 374 286.546 380.5C297.746 392.9 308.879 419 313.046 430.5L321.046 438.5L343.546 439L374.046 472L372.546 474.5L353.046 459.5H349.046C348.713 465.167 348.546 476.8 350.546 478C352.546 479.2 362.713 489.833 367.546 495C367.879 495.5 368.646 497.3 369.046 500.5C369.446 503.7 362.213 514.167 358.546 519C357.346 519.8 348.713 519 344.546 518.5C340.146 517.3 339.046 516.667 339.046 516.5C337.846 514.9 337.213 513.833 337.046 513.5C335.846 503.9 334.213 497.167 333.546 495C332.746 491.4 327.879 487.167 325.546 485.5C322.346 483.1 316.879 477.5 314.546 475C312.946 473.4 307.546 466.333 305.046 463C300.646 456.6 273.546 427 260.546 413L210.546 369.5C212.046 371 208.446 367.5 204.046 363.5C199.646 359.5 196.546 355.833 195.546 354.5C192.746 349.3 194.379 340.333 195.546 336.5C195.546 336.5 209.713 308.5 216.546 296.5C234.146 265.7 239.213 260.333 239.546 261.5C256.346 239.9 256.879 239.833 255.046 242.5L269.546 219C277.546 205.8 294.213 190.333 297.046 188.5C316.646 157.3 367.213 141 395.046 133L395.546 67L396.046 1ZM419.546 126V188.5C426.213 188.5 448.046 182.6 482.046 159C482.546 158.5 484.046 157.3 486.046 156.5C488.046 155.7 500.546 155.5 506.546 155.5C508.379 154.5 513.246 151.6 518.046 148C522.846 144.4 542.046 143.167 551.046 143C584.379 130.833 651.146 106.3 651.546 105.5C651.946 104.7 666.713 102.833 674.046 102C675.879 100.167 680.946 96.5 686.546 96.5C692.146 96.5 696.879 101.833 698.546 104.5C703.046 104.5 700.546 105 704.546 103.5C707.746 102.3 713.879 94.6667 716.546 91C717.379 89.8333 715.246 84.1 700.046 70.5H692.046C687.046 73.5 676.746 79.6 675.546 80C674.346 80.4 666.046 80.1667 662.046 80V76.5L692.046 60.5L691.046 57.5L657.546 70.5L647.546 71.5L627.546 95L535.546 96.5L515.046 107C508.046 109 493.046 108.5 473.546 111L446.546 118.5L419.546 126ZM393.546 686L418.546 679V693H393.546V686Z" stroke="#ff038f"/>
<path d="M335.252 25C354.589 25 373.549 26.7447 392 30.0771V59.9609C377.462 58.0094 362.605 57 347.5 57C173.254 57 32 191.315 32 357C32 522.685 173.254 657 347.5 657C436.37 657 516.657 622.06 574 565.84V593.825C513.096 651.457 428.563 686 335.252 686C150.098 686 0 538.03 0 355.5C3.2677e-08 172.97 150.098 25 335.252 25ZM604.557 560.455C604.526 560.493 604.497 560.532 604.467 560.57L604.392 560.349L604.557 560.455ZM633.158 503.212C633.734 503.188 634.23 503.299 634.617 503.57C634.997 503.837 635.333 504.302 635.512 505.108C635.534 505.208 635.525 505.452 635.409 505.896C635.299 506.317 635.11 506.855 634.844 507.501C634.312 508.792 633.491 510.474 632.442 512.457C630.346 516.42 627.358 521.548 623.997 527.091C617.392 537.985 609.361 550.458 603.867 558.791L598.402 542.58L629.83 504.384C630.712 503.834 632.015 503.26 633.158 503.212ZM579.948 135.655C597.329 154.745 612.639 175.762 625.506 198.265C626.219 199.801 626.84 201.317 627.286 202.713C627.824 204.395 628.094 205.857 628.002 206.958C627.907 208.101 627.616 208.765 627.281 209.135C626.961 209.487 626.549 209.628 626.053 209.612C625.541 209.597 624.959 209.413 624.376 209.125C623.817 208.849 623.286 208.491 622.859 208.146L615.025 197.901C601.537 177.437 585.524 158.63 567.4 141.877L579.948 135.655ZM422 37.0029C460.939 47.9847 497.109 66.1131 529.138 89.7646L512.954 101.513C485.197 85.2255 454.586 72.9143 422 65.4131V37.0029Z" fill="#ff038f"/>
</svg>
